<?xml version="1.0" encoding="utf-8"?>
<!-- Generator: Adobe Illustrator 19.1.0, SVG Export Plug-In . SVG Version: 6.00 Build 0)  -->
<svg version="1.1" id="Layer_1" xmlns="http://www.w3.org/2000/svg" xmlns:xlink="http://www.w3.org/1999/xlink" x="0px" y="0px"
	 viewBox="-44 797 585 455" style="enable-background:new -44 797 585 455;" xml:space="preserve">
<style type="text/css">
	.st0{fill:#4A89DC;}
	.st1{fill:#6499DC;}
	.st2{fill:#C5C7CB;}
	.st3{fill:#FFFFFF;}
	.st4{fill:#5C60A5;}
	.st5{fill:#8B94A2;}
	.st6{fill:#C5C9D1;}
	.st7{fill:#FCFCFD;}
	.st8{fill:#99A1AC;}
	.st9{fill:#CACED5;}
	.st10{fill:#182947;}
	.st11{fill:#DEE0E2;}
	.st12{fill:#7E81B7;}
	.st13{fill:#C3CDDC;}
	.st14{fill:#17A687;}
	.st15{fill:#218C7A;}
	.st16{fill:#AF655D;}
	.st17{fill:#411C51;}
	.st18{fill:#262262;}
	.st19{fill:#F5C25E;}
	.st20{fill:#5D60A5;}
	.st21{fill:#805356;}
	.st22{fill:#231F20;}
	.st23{opacity:0.2;}
	.st24{fill:#39204E;}
	.st25{fill:#6268A3;}
	.st26{fill:#C38160;}
	.st27{fill:#F2BD25;}
	.st28{fill:#FFCCA9;}
	.st29{fill:#D0AB97;}
	.st30{fill:#F8AB81;}
	.st31{fill:#F06924;}
	.st32{fill:#C35C32;}
	.st33{fill:#F1948D;}
	.st34{fill:#5FC4BB;}
	.st35{fill:#FFD9CA;}
	.st36{opacity:0.58;}
	.st37{fill:#FDBBA2;}
	.st38{fill:#FECFBD;}
	.st39{fill:#D0B6B1;}
	.st40{fill:#FECEBC;}
	.st41{fill:none;}
	.st42{fill:#55A5A3;}
	.st43{fill:#6267A6;}
</style>
<title>COM001-illos-vector</title>
<rect x="-1.2" y="845.9" class="st0" width="191.7" height="31.2"/>
<polygon class="st1" points="-1.2,846.9 16.2,877.1 190.6,877.1 190.6,846.9 "/>
<ellipse class="st2" cx="95" cy="1239" rx="109" ry="4.5"/>
<path class="st3" d="M24.7,1022.9c-6.7,0-12.2,5.5-12.2,12.2c0,6.7,5.5,12.2,12.2,12.2s12.2-5.5,12.2-12.2l0,0
	C36.8,1028.4,31.4,1022.9,24.7,1022.9z"/>
<path class="st3" d="M189.6,1187.1c0.3,0,0.5-0.2,0.5-0.5l0,0v-0.4l-44.2-78.8H52c-0.8,0-1.4-0.7-1.4-1.4v-3c0-0.8,0.6-1.4,1.4-1.4
	h90.5l-34.7-61.8H52c-0.8,0-1.4-0.6-1.4-1.4l0,0v-6.3c0-0.8,0.6-1.4,1.4-1.4h50.7l-19.6-35H52c-0.8,0-1.4-0.6-1.4-1.4l0,0v-3
	c0-0.8,0.7-1.4,1.4-1.4h27.8l-2.4-4.3H52c-0.8,0-1.4-0.6-1.4-1.4l0,0v-3c0-0.8,0.7-1.4,1.4-1.4h22.1l-2.3-4H52
	c-0.8,0-1.4-0.6-1.4-1.4l0,0V968c0-0.8,0.6-1.5,1.4-1.5c0,0,0,0,0.1,0h14.7L36,911.8c-3.1,6.3-10.7,8.8-17,5.7
	c-6.3-3.1-8.8-10.7-5.7-17c2.1-4.3,6.6-7,11.4-7c0.4,0,0.7,0,1.1,0.1l-9.2-16.4H-0.3v309.5c0,0.3,0.2,0.5,0.5,0.5c0,0,0,0,0,0
	 M50.6,1045.3c0-0.8,0.6-1.4,1.4-1.4h37.1c0.8,0,1.4,0.6,1.4,1.4l0,0v3c0,0.8-0.6,1.4-1.4,1.4l0,0H52c-0.8,0-1.4-0.6-1.4-1.4l0,0
	L50.6,1045.3z M50.6,1089.8c0-0.8,0.6-1.4,1.4-1.4h52.8c0.8,0,1.4,0.6,1.4,1.4l0,0v6.3c0,0.8-0.6,1.4-1.4,1.4l0,0H52
	c-0.8,0-1.4-0.6-1.4-1.4l0,0L50.6,1089.8z M24.7,1105.3c-7.3,0-13.2-5.9-13.2-13.2s5.9-13.2,13.2-13.2s13.2,5.9,13.2,13.2l0,0
	C37.8,1099.4,32,1105.3,24.7,1105.3z M24.7,1048.3c-7.3,0-13.2-5.9-13.2-13.2c0-7.3,5.9-13.2,13.2-13.2s13.2,5.9,13.2,13.2l0,0
	C37.8,1042.4,31.9,1048.3,24.7,1048.3L24.7,1048.3z M24.7,983.5c-7.3,0-13.2-5.9-13.2-13.2c0-7.3,5.9-13.2,13.2-13.2
	s13.2,5.9,13.2,13.2l0,0C37.8,977.5,31.9,983.4,24.7,983.5L24.7,983.5z M137.4,1116.1c0,0.8-0.6,1.4-1.4,1.4l0,0H52
	c-0.8,0-1.4-0.6-1.4-1.4l0,0v-3c0-0.8,0.7-1.4,1.4-1.4h83.9c0.8,0,1.4,0.6,1.4,1.4l0,0L137.4,1116.1z"/>
<path class="st3" d="M24.7,1080c-6.7,0-12.2,5.5-12.2,12.2c0,6.7,5.5,12.2,12.2,12.2s12.2-5.5,12.2-12.2l0,0
	C36.8,1085.5,31.4,1080,24.7,1080z"/>
<path class="st3" d="M24.7,958.1c-6.7,0-12.2,5.5-12.2,12.2s5.5,12.2,12.2,12.2s12.2-5.5,12.2-12.2l0,0
	C36.8,963.5,31.4,958.1,24.7,958.1z"/>
<path class="st0" d="M-0.8,846.3L-0.8,846.3z"/>
<path class="st0" d="M190.6,846.3L190.6,846.3z"/>
<path class="st4" d="M24.7,1021.9c-7.3,0-13.2,5.9-13.2,13.2c0,7.3,5.9,13.2,13.2,13.2s13.2-5.9,13.2-13.2l0,0
	C37.8,1027.8,32,1021.9,24.7,1021.9z M24.7,1047.3c-6.7,0-12.2-5.5-12.2-12.2s5.5-12.2,12.2-12.2s12.2,5.5,12.2,12.2l0,0
	C36.8,1041.8,31.4,1047.3,24.7,1047.3z"/>
<path class="st5" d="M50.6,1032.1v6.3c0,0.8,0.6,1.4,1.4,1.4h55.9l-5.1-9.2H52C51.2,1030.7,50.6,1031.3,50.6,1032.1z"/>
<path class="st6" d="M52,1043.9h37.1c0.8,0,1.4,0.6,1.4,1.4v2.9c0,0.8-0.6,1.4-1.4,1.4H52c-0.8,0-1.4-0.6-1.4-1.4v-2.9
	C50.6,1044.5,51.2,1043.9,52,1043.9z"/>
<path class="st4" d="M24.7,957.1c-7.3,0-13.2,5.9-13.2,13.2s5.9,13.2,13.2,13.2s13.2-5.9,13.2-13.2l0,0
	C37.8,963,32,957.1,24.7,957.1z M24.7,982.4c-6.7,0-12.2-5.5-12.2-12.2s5.5-12.2,12.2-12.2s12.2,5.5,12.2,12.2l0,0
	C36.8,977,31.4,982.4,24.7,982.4z"/>
<path class="st5" d="M50.6,967.9v6.3c0,0.8,0.6,1.4,1.4,1.4h19.8l-5.1-9.2H52C51.2,966.5,50.6,967.2,50.6,967.9z"/>
<path class="st6" d="M50.6,981.2v3c0,0.8,0.6,1.4,1.4,1.4h25.4l-3.3-5.8H52C51.2,979.7,50.6,980.4,50.6,981.2z"/>
<path class="st6" d="M50.6,991.3v3c0,0.8,0.6,1.4,1.4,1.4h31.1l-3.3-5.8H52C51.2,989.9,50.6,990.5,50.6,991.3z"/>
<path class="st4" d="M24.7,1079c-7.3,0-13.2,5.9-13.2,13.2c0,7.3,5.9,13.2,13.2,13.2s13.2-5.9,13.2-13.2l0,0
	C37.8,1084.9,32,1079,24.7,1079z M24.7,1104.4c-6.7,0-12.2-5.5-12.2-12.2S18,1080,24.7,1080s12.2,5.5,12.2,12.2l0,0
	C36.8,1098.9,31.4,1104.3,24.7,1104.4L24.7,1104.4z"/>
<path class="st5" d="M52,1088.4h52.8c0.8,0,1.4,0.6,1.4,1.4v6.3c0,0.8-0.6,1.4-1.4,1.4H52c-0.8,0-1.4-0.6-1.4-1.4v-6.3
	C50.6,1089,51.2,1088.4,52,1088.4z"/>
<path class="st6" d="M50.6,1103v3c0,0.8,0.6,1.4,1.4,1.4h93.8l-3.3-5.8H52C51.2,1101.6,50.6,1102.2,50.6,1103z"/>
<path class="st6" d="M52,1111.7h83.9c0.8,0,1.4,0.6,1.4,1.4v2.9c0,0.8-0.6,1.4-1.4,1.4H52c-0.8,0-1.4-0.6-1.4-1.4v-2.9
	C50.6,1112.4,51.2,1111.7,52,1111.7z"/>
<path class="st7" d="M25.8,893.5c7,0.6,12.1,6.7,11.5,13.7c-0.1,1.6-0.6,3.1-1.3,4.6l30.7,54.7h38.1c0.8,0,1.4,0.6,1.4,1.4l0,0v6.3
	c0,0.8-0.6,1.4-1.4,1.4l0,0h-33l2.3,4h96.4c0.8,0,1.4,0.6,1.4,1.4l0,0v3c0,0.8-0.6,1.4-1.4,1.4l0,0H77.4l2.4,4.3h43.9
	c0.8,0,1.4,0.6,1.4,1.4l0,0v3c0,0.8-0.6,1.4-1.4,1.4l0,0H83.1l19.6,35h26.3c0.8,0,1.4,0.6,1.4,1.4l0,0v6.3c0,0.8-0.6,1.4-1.4,1.4
	l0,0h-21.2l34.7,61.8h15.5c0.8,0,1.4,0.6,1.4,1.4l0,0v3c0,0.8-0.6,1.4-1.4,1.4l0,0h-12.2l44.7,78.8V877.1h-174L25.8,893.5z
	 M50.6,903.2c0-0.8,0.6-1.4,1.4-1.4h77.1c0.8,0,1.4,0.6,1.4,1.4c0,0,0,0,0,0v6.3c0,0.8-0.6,1.4-1.4,1.4l0,0H52
	c-0.8,0-1.4-0.6-1.4-1.4c0,0,0,0,0,0L50.6,903.2z M50.6,916.4c0-0.8,0.6-1.4,1.4-1.4h118.6c0.8,0,1.4,0.6,1.4,1.4c0,0,0,0,0,0v3
	c0,0.8-0.6,1.4-1.4,1.4l0,0H52c-0.8,0-1.4-0.6-1.4-1.4c0,0,0,0,0,0L50.6,916.4z M50.6,926.5c0-0.8,0.6-1.5,1.4-1.5c0,0,0,0,0,0h94.9
	c0.8,0,1.4,0.6,1.4,1.4l0,0v3c0,0.8-0.6,1.4-1.4,1.4l0,0H52c-0.8,0-1.4-0.6-1.4-1.4l0,0L50.6,926.5z"/>
<path class="st8" d="M52,901.7h77.1c0.8,0,1.4,0.6,1.4,1.4v6.3c0,0.8-0.6,1.4-1.4,1.4H52c-0.8,0-1.4-0.6-1.4-1.4v-6.3
	C50.6,902.4,51.2,901.7,52,901.7z"/>
<path class="st9" d="M52,914.9h118.5c0.8,0,1.4,0.6,1.4,1.4v3c0,0.8-0.6,1.4-1.4,1.4H52c-0.8,0-1.4-0.6-1.4-1.4v-3
	C50.6,915.6,51.2,914.9,52,914.9z"/>
<path class="st9" d="M52,925h94.9c0.8,0,1.4,0.6,1.4,1.4v3c0,0.8-0.6,1.4-1.4,1.4H52c-0.8,0-1.4-0.6-1.4-1.4v-3
	C50.6,925.7,51.2,925,52,925z"/>
<path class="st8" d="M129.1,1039.8c0.8,0,1.4-0.6,1.4-1.4l0,0v-6.3c0-0.8-0.6-1.4-1.4-1.4l0,0h-26.3l5.1,9.2H129.1z"/>
<path class="st8" d="M104.9,975.7c0.8,0,1.4-0.6,1.4-1.4l0,0v-6.3c0-0.8-0.6-1.4-1.4-1.4l0,0H66.7l5.1,9.2H104.9z"/>
<path class="st9" d="M170.6,985.5c0.8,0,1.4-0.6,1.4-1.4v-3c0-0.8-0.6-1.4-1.4-1.4l0,0H74.2l3.3,5.8L170.6,985.5z"/>
<path class="st9" d="M123.8,995.7c0.8,0,1.4-0.6,1.4-1.4l0,0v-3c0-0.8-0.6-1.4-1.4-1.4l0,0H79.8l3.3,5.8L123.8,995.7z"/>
<path class="st9" d="M158.1,1107.4c0.8,0,1.4-0.6,1.4-1.4l0,0v-3c0-0.8-0.6-1.4-1.4-1.4l0,0h-15.5l3.3,5.8L158.1,1107.4z"/>
<path class="st10" d="M190.5,846.3L190.5,846.3c-0.2-0.3-0.6-0.4-0.9-0.4H0.2c-0.4,0-0.7,0.1-1,0.4H190.5z"/>
<path class="st10" d="M190.5,1186.9c0-0.1,0-0.2,0-0.2V877.1l0,0V1186.9z"/>
<path class="st10" d="M190.5,847.1c0,0.1,0,0.2,0,0.2v29.8l0,0v-30.8h-0.1L190.5,847.1z"/>
<path class="st10" d="M190.5,847.1v30l0,0v-29.8C190.5,847.3,190.5,847.2,190.5,847.1z"/>
<path class="st10" d="M190.5,1187v-0.2C190.5,1186.9,190.5,1186.9,190.5,1187L190.5,1187z"/>
<path class="st10" d="M203.7,1168.6V856.3c0-41.2-18.8-50.8-97.6-50.8H83.7c-77,0-97.6,9.6-97.6,50.8v312.3
	c0,20.4-6.3,68.8,103.5,68.8h10.6C209.9,1237.5,203.7,1189.1,203.7,1168.6z M190.6,1187.5c0,0.6-0.4,1-1,1H0.2c-0.6,0-1-0.4-1-1
	V848.2c0-0.6,0.4-1,1-1h189.4c0.6,0,1,0.4,1,1L190.6,1187.5z"/>
<path class="st11" d="M520,1048.9l-13-12.8H269c-1.6,0-2.8-1.3-2.8-2.8v-85c0-1.6,1.3-2.8,2.8-2.8h265.2c1.6,0,2.8,1.3,2.8,2.8v85
	c0,1.6-1.3,2.8-2.8,2.8H520V1048.9z M269,946.4c-1,0-1.8,0.8-1.8,1.8v85c0,1,0.8,1.8,1.8,1.8h238.4l11.6,11.5v-11.5h15.2
	c1,0,1.8-0.8,1.8-1.8v-85c0-1-0.8-1.8-1.8-1.8L269,946.4z"/>
<path class="st11" d="M376.9,994.1h141.2c0.6,0,1.1,0.5,1.1,1.1v3.5c0,0.6-0.5,1.1-1.1,1.1H376.9c-0.6,0-1.1-0.5-1.1-1.1v-3.5
	C375.8,994.6,376.3,994.1,376.9,994.1z"/>
<path class="st11" d="M376.8,1005.8h112.4c0.6,0,1,0.4,1,1v3.6c0,0.6-0.4,1-1,1H376.8c-0.6,0-1-0.4-1-1v-3.6
	C375.8,1006.3,376.3,1005.8,376.8,1005.8z"/>
<path class="st12" d="M377.4,968.6h76.3c0.5,0,0.8,0.4,0.8,0.8v15.2c0,0.5-0.4,0.8-0.8,0.8h-76.3c-0.5,0-0.8-0.4-0.8-0.8v-15.2
	C376.5,969,376.9,968.6,377.4,968.6z"/>
<path class="st11" d="M479,924.5l-13-12.8H228c-1.6,0-2.8-1.3-2.8-2.8v-85c0-1.6,1.2-2.9,2.8-2.9c0,0,0,0,0,0h265.3
	c1.6,0,2.8,1.3,2.8,2.8v85c0,1.6-1.3,2.8-2.8,2.8H479V924.5z M228,821.9c-1,0-1.8,0.8-1.8,1.8v85c0,1,0.8,1.8,1.8,1.8h238.4
	l11.6,11.5v-11.5h15.2c1,0,1.8-0.8,1.8-1.8v-85c0-1-0.8-1.8-1.8-1.8L228,821.9z"/>
<path class="st11" d="M340.9,869.7h124.7c0.6,0,1,0.4,1,1v3.6c0,0.6-0.4,1-1,1H340.9c-0.6,0-1-0.4-1-1v-3.6
	C339.9,870.1,340.3,869.7,340.9,869.7z"/>
<path class="st11" d="M340.9,881.4h89.4c0.6,0,1,0.4,1,1v3.6c0,0.6-0.4,1-1,1h-89.4c-0.6,0-1-0.4-1-1v-3.6
	C339.9,881.8,340.3,881.4,340.9,881.4z"/>
<path class="st12" d="M341.7,844.1h93.9c0.6,0,1.1,0.5,1.1,1.1V860c0,0.6-0.5,1.1-1.1,1.1h-93.9c-0.6,0-1.1-0.5-1.1-1.1v-14.7
	C340.6,844.6,341.1,844.1,341.7,844.1z"/>
<path class="st0" d="M175,1176H15.4c-2.1,0-3.9-1.7-3.9-3.9V1152c0-2.1,1.7-3.9,3.9-3.9H175c2.1,0,3.9,1.7,3.9,3.9v20.1
	C178.9,1174.2,177.2,1176,175,1176C175,1176,175,1176,175,1176z M15.4,1149.2c-1.6,0-2.8,1.3-2.9,2.8v20.1c0,1.6,1.2,2.9,2.8,2.9
	c0,0,0,0,0.1,0H175c1.6,0,2.9-1.3,2.9-2.9V1152c0-1.6-1.3-2.9-2.9-2.9L15.4,1149.2z"/>
<rect x="18.5" y="1153.1" class="st0" width="1" height="17.3"/>
<path class="st3" d="M150.7,1065.7H416c1.3,0,2.3,1,2.3,2.3v85c0,1.3-1,2.3-2.3,2.3H177.8l-12.3,12.2v-12.1h-14.7
	c-1.3,0-2.3-1-2.3-2.3V1068C148.4,1066.7,149.4,1065.7,150.7,1065.7z"/>
<path class="st10" d="M164.9,1168.7v-12.8h-14.2c-1.6,0-2.8-1.3-2.8-2.8V1068c0-1.6,1.3-2.8,2.8-2.8H416c1.6,0,2.8,1.3,2.8,2.8v85
	c0,1.6-1.3,2.8-2.8,2.8H178L164.9,1168.7z M150.7,1066.2c-1,0-1.8,0.8-1.8,1.8v85c0,1,0.8,1.8,1.8,1.8h15.2v11.5l11.6-11.5H416
	c1,0,1.8-0.8,1.8-1.8v-85c0-1-0.8-1.8-1.8-1.8H150.7z"/>
<path class="st13" d="M263.6,1113.9h137c0.6,0,1,0.4,1,1v3.6c0,0.6-0.4,1-1,1h-137c-0.6,0-1-0.4-1-1v-3.6
	C262.6,1114.4,263,1113.9,263.6,1113.9z"/>
<path class="st13" d="M263.6,1125.7h89.7c0.6,0,1,0.4,1,1v3.6c0,0.6-0.4,1-1,1h-89.7c-0.6,0-1-0.4-1-1v-3.6
	C262.6,1126.1,263,1125.7,263.6,1125.7z"/>
<path class="st4" d="M264.4,1088.4h99.9c0.6,0,1.1,0.5,1.1,1.1v14.7c0,0.6-0.5,1.1-1.1,1.1h-99.9c-0.6,0-1.1-0.5-1.1-1.1v-14.7
	C263.3,1088.9,263.8,1088.4,264.4,1088.4z"/>
<circle class="st14" cx="205.3" cy="1101.7" r="45.1"/>
<path class="st15" d="M222.3,1128.7c1-2.1,0.9-4.5-0.3-6.5c-1.8-0.8-3.7-1.4-5.6-1.9v-2.8l0-0.1l0,0l3.8-2.3l0.6-0.4
	c3.5-2.4,5.8-6.2,6.2-10.5l1.3-14h0.2c1.8-0.4,3.4-2.6,3.9-5.4c0.5-3.3-0.8-6.3-2.9-6.6l1.2-13.9c-14.3-9.6-32.8-10.3-47.7-1.7
	l1.8,16.1c-2,0.5-3.2,3.4-2.7,6.6c0.4,2.8,2.1,5,3.9,5.4h0.1l1.5,13.8c0.4,3.2,1.8,6.3,4.1,8.6l0,0c0.3,0.4,0.7,0.7,1.1,1l0.2,0.2
	c0.3,0.3,0.7,0.5,1,0.7l0.2,0.2l0.3,0.2l3.8,2.2l-0.2,0.3v2.5l0,0c-1.9,0.5-3.8,1.2-5.6,2.1c-1.1,2-1.2,4.4-0.2,6.5l-0.1,0.1
	c-6.3,0.9-12.6,2.4-18.7,4.4h-0.1c0.8,0.9,1.7,1.8,2.6,2.7c18.5,15.9,46.2,14.1,62.6-3.9C233.3,1130.5,227.8,1129.4,222.3,1128.7z"
	/>
<path class="st16" d="M185.7,1102.8c0.5,4.5,3.1,8.5,7,10.8l9.8,5.8c0.9,0.6,2,0.8,3.1,0.8l0,0c1.1,0,2.2-0.3,3.1-0.9l9.7-5.9
	c3.9-2.3,6.4-6.4,6.8-10.8l3.9-43c0.2-2-0.1-3.9-0.8-5.8l0,0c-0.2-0.6-1,0.1-2,0.8c-0.2,0.1-0.4,0.1-0.5-0.1c0,0,0-0.1-0.1-0.1
	c-0.1-0.8-0.6-2.3-1.9-2.4c-0.2,0-0.3-0.1-0.4-0.3c-0.1-0.9-0.6-3.3-2.5-3.2c-0.2,0-0.4-0.1-0.4-0.3c-0.1-0.7-0.5-2-1-2
	c-0.7,0-1.1,0.9-3,0.1s-2.8-2.8-4.8-2.4s-5.8-1.4-7.9-0.7s-2.8,1.7-3.6,1.8s0-1.2-4.9-0.6c-0.1,0-0.2,0-0.3-0.1
	c-1.3-1-3-1.4-4.6-0.8c-2.8,0.9-2,1-2,1l0,0c0.2,0.1,0.3,0.3,0.2,0.5c0,0.1-0.1,0.2-0.3,0.2l-1.3,0.2c-0.2,0-0.3,0.2-0.3,0.4
	c0,0.1,0.1,0.2,0.1,0.2c0.7,0.6,1.6,1.4,0.2,1.6c-1.9,0.2-5.1,1.8-5.3,3c0,0.1,0,0.3,0.2,0.4c0.4,0.3,1.4,1.1,0.4,1.9
	c-0.6,0.5-1.2,0.9-1.8,1.3c-0.1,0.1-0.2,0.2-0.2,0.4L185.7,1102.8z"/>
<path class="st17" d="M229.1,1059c-7.5-2.8-15.4-4.3-23.4-4.3h-1.1c-8,0.1-16,1.5-23.6,4.2h-0.1l-0.5-4.5c0-0.2,0.1-0.3,0.2-0.4
	c0.6-0.4,1.2-0.8,1.8-1.2c1-0.8,0-1.6-0.4-1.9c-0.1-0.1-0.2-0.2-0.2-0.4c0.2-1.2,3.5-2.7,5.3-3c1.3-0.2,0.5-1-0.2-1.6
	c-0.2-0.1-0.2-0.4-0.1-0.5c0.1-0.1,0.1-0.1,0.2-0.1l1.3-0.2c0.2,0,0.3-0.2,0.3-0.4c0-0.2-0.1-0.3-0.2-0.3c0,0-0.8-0.1,2-1
	c1.6-0.5,3.3-0.2,4.6,0.9c0.1,0.1,0.2,0.1,0.3,0.1c4.9-0.6,4.1,0.6,4.9,0.6s1.5-1,3.6-1.8s5.9,1.1,7.9,0.7s3,1.7,4.8,2.4
	c1.8,0.7,2.3-0.1,2.9-0.1c0.5,0,0.9,1.3,1,2c0,0.2,0.2,0.3,0.4,0.3c1.8-0.2,2.3,2.3,2.5,3.2c0,0.2,0.2,0.3,0.4,0.3
	c1.3,0.1,1.8,1.6,1.9,2.4c0,0.2,0.2,0.3,0.4,0.3c0,0,0.1,0,0.1-0.1c1.1-0.7,1.8-1.4,2-0.8l0,0C228.9,1055.3,229.2,1057.1,229.1,1059
	L229.1,1059z"/>
<path class="st16" d="M231.2,1083.1c-0.4,2.9-2.1,5.1-3.9,5.4h-0.2l0.7-7.6l0.4-4.5C230.4,1076.8,231.7,1079.8,231.2,1083.1z"/>
<path class="st18" d="M220.4,1126.9c-0.8,1.4-2,2.6-3.4,3.5l-7.5,4.9v-5.7l0.1-0.6c0-0.2,0-0.4,0-0.7l0,0l5-3.8l0.3-0.2
	c0,0,5.2-4,5.2-4C221.3,1122.4,221.4,1124.8,220.4,1126.9z"/>
<path class="st19" d="M214.5,1118.6c1.9,0.5,3.8,1.1,5.6,1.9l-5.2,4l-0.3,0.2L214.5,1118.6z"/>
<path class="st17" d="M216.3,1071.6c-1.5,0-2.9,0.1-4.4,0.2c-0.6,0.1-1.3,0.1-1.9,0.2l0.5-2.7l8.5-0.2c1.2,0.1,2.3,0.6,3.2,1.4
	c0.6,0.6,1.2,1.4,1.6,2.1c-0.4-0.1-0.7-0.3-1.1-0.4l-0.3-0.1c-0.2-0.1-0.3-0.1-0.5-0.1c-1.7-0.4-3.4-0.6-5.2-0.5H216.3L216.3,1071.6
	z"/>
<path class="st20" d="M209.5,1128.4c0,0.2,0,0.4,0,0.7l-0.1,0.6L209.5,1128.4L209.5,1128.4z"/>
<path class="st12" d="M211.1,1146.4l-2.7-11.6c0.3-0.3,0.5-0.7,0.6-1.2l0.4-3.9v5.7l7.5-4.9c1.4-0.8,2.6-2,3.4-3.5
	c6.4,0.8,12.8,2.3,19,4.2C232.1,1139.5,222.1,1144.9,211.1,1146.4z"/>
<path class="st3" d="M208.6,1074.6h0.1H208.6L208.6,1074.6L208.6,1074.6z"/>
<path class="st3" d="M208.6,1074.6L208.6,1074.6L208.6,1074.6z"/>
<path class="st21" d="M205.3,1094.4c-1.3,0-2.7-0.1-4-0.3c-1.4-0.2-2.4-1.5-2.2-2.9c0,0,0,0,0-0.1l2.9-17h6.4l3.1,17
	c0.2,1.4-0.7,2.8-2.2,3c0,0,0,0,0,0C208,1094.3,206.7,1094.4,205.3,1094.4L205.3,1094.4z"/>
<path class="st3" d="M202,1074.6L202,1074.6l-0.3,0.1h0.1L202,1074.6z"/>
<path class="st16" d="M201.3,1128.5l-5.1-3.8v-6.2v-2.5l0.2-0.3l6,3.6c1.9,1.1,4.3,1.1,6.2,0l6-3.6l0,0.1v2.8v6.1l-5,3.8
	c-0.3-1-1.2-1.7-2.2-1.7h-3.7c-1.2,0-2.2,0.9-2.2,2.1c0,0,0,0,0,0h-0.1L201.3,1128.5z"/>
<path class="st12" d="M202.4,1134.7l-2.5,11.7c-11-1.3-21-6.6-28.4-14.9h0.1c6.1-2,12.3-3.5,18.7-4.4l0.1-0.1c0.8,1.4,2,2.6,3.4,3.5
	l7.6,4.8v-6.5h0.1c0,0.1,0,0.2,0,0.2l0.6,4.5C202,1134.1,202.2,1134.4,202.4,1134.7L202.4,1134.7z"/>
<path class="st19" d="M190.5,1120.6c1.8-0.9,3.6-1.6,5.6-2.1l0,0v6.2l-0.3-0.2C195.8,1124.5,190.6,1120.6,190.5,1120.6z"/>
<path class="st10" d="M194,1080.9c-1.2,0.3-2.5-0.4-2.8-1.6c-0.3-1.2,0.4-2.5,1.6-2.8c1.2-0.3,2.5,0.4,2.8,1.6
	c0,0.2,0.1,0.4,0.1,0.6C195.9,1079.8,195.1,1080.8,194,1080.9z"/>
<path class="st10" d="M216.2,1080.9c-1.2,0.3-2.5-0.4-2.8-1.6c-0.3-1.2,0.4-2.5,1.6-2.8c1.2-0.3,2.5,0.4,2.8,1.6
	c0,0.2,0.1,0.4,0.1,0.6C218.1,1079.8,217.3,1080.8,216.2,1080.9z"/>
<path class="st17" d="M189,1071.9c-0.9,0.2-1.8,0.5-2.7,1c0.5-0.8,1.1-1.6,1.7-2.3c0.8-0.9,2-1.4,3.2-1.5l8.5,0.1l0.5,2.7
	c-0.7-0.1-1.3-0.1-1.9-0.2c-1.5-0.1-2.9-0.2-4.4-0.2C192.3,1071.5,190.6,1071.6,189,1071.9z"/>
<path class="st3" d="M183.8,1083.1l0.4,0.9C184,1083.7,183.9,1083.4,183.8,1083.1z"/>
<path class="st16" d="M183.2,1089c-1.8-0.4-3.4-2.5-3.9-5.4c-0.5-3.2,0.7-6.2,2.7-6.6l0.6,5.2l0.7,6.7L183.2,1089z"/>
<path class="st17" d="M227.2,1081c-0.1,0.8-0.3,1.5-0.6,2.2l0,0l-7.1,16.6l-0.1,0.1c-3-3-8.2-5-14-4.9s-11,2.1-14,5.1l-0.1-0.1
	l-7-16c-0.2-0.3-0.3-0.6-0.4-0.9l-0.4-0.9h-0.1l0.7,6.7l1.5,13.9c0.5,4.3,2.9,8.2,6.6,10.6l0.3,0.2l3.8,2.2l6,3.6
	c1.9,1.1,4.3,1.1,6.2,0l6-3.6l0,0l3.8-2.3l0.6-0.4c3.5-2.4,5.8-6.2,6.2-10.5l1.3-14L227.2,1081L227.2,1081z"/>
<path class="st21" d="M214.5,1115.8l-6,3.6c-1.9,1.1-4.3,1.1-6.2,0l-6-3.6l-0.2,0.3v1l6,3.5c1.9,1.1,4.3,1.1,6.2,0l6-3.6l0,0
	l0.2-0.1v-1L214.5,1115.8z"/>
<polygon class="st22" points="183.6,1083.1 183.2,1082.2 183.5,1082.1 183.9,1083 "/>
<g class="st23">
	<path class="st24" d="M200.4,1102.6c0,2.8,2.3,5,5.1,4.9c2.8,0,5-2.3,4.9-5.1C209.7,1102.9,205.9,1105.7,200.4,1102.6z"/>
</g>
<path class="st25" d="M190.6,1121.8l5.3,3.9l0.3,0.2l5.1,3.8v0.4v6.5l-7.6-4.8c-1.4-0.8-2.6-2-3.4-3.5
	C189.4,1126.2,189.4,1123.8,190.6,1121.8z"/>
<path class="st25" d="M220.4,1128.2c-0.8,1.4-2,2.6-3.4,3.5l-7.5,4.9v-5.7v-1.2l0,0l0,0l5-3.8l0.3-0.2c0,0,5.2-4,5.2-4
	C221.3,1123.6,221.4,1126.1,220.4,1128.2z"/>
<path class="st10" d="M201.4,1128.9c0-1.2,1-2.2,2.2-2.1c0,0,0,0,0,0h3.7c1,0,2,0.7,2.2,1.7l0,0l0,0v1.2l-0.4,3.9
	c-0.1,0.5-0.3,0.9-0.6,1.2c-0.4,0.4-1,0.7-1.6,0.7h-2.6c-0.7,0-1.3-0.3-1.8-0.8c-0.3-0.3-0.4-0.7-0.5-1.1l-0.6-4.5
	C201.4,1129,201.4,1129,201.4,1128.9z"/>
<path class="st10" d="M205.6,1146.8c1.8,0,3.7-0.1,5.5-0.4l-2.5-11c-0.4,0.5-1.1,0.7-1.7,0.7h-2.7c-0.7,0-1.4-0.3-1.8-0.8l-0.1,0
	l-2.4,11.1C201.8,1146.6,203.7,1146.8,205.6,1146.8z"/>
<path class="st26" d="M208.2,1074.6l0.1,0.5c1.3-0.4,2.6-0.6,3.9-0.6c6.9,0,12.5,4.6,12.5,10.4c0,0.2,0,0.4,0,0.6
	c0.5-0.5,0.9-1.1,1.2-1.8l0.4-0.9c0.3-0.8,0.4-1.7,0.4-2.6v-4.4l0,0C219,1069.4,208.2,1074.6,208.2,1074.6z"/>
<path class="st26" d="M200.1,1082.9c0.1-0.4,0.2-0.8,0.3-1.2l1.1-7c0,0-10.7-5-18.3,1.3c1.5-0.5,3.1-0.8,4.8-0.8
	C193.8,1075.1,198.6,1078.4,200.1,1082.9z"/>
<path class="st10" d="M202,1074.6h-0.2l0,0l-0.1-1.1c1.1-0.3,2.3-0.4,3.5-0.4c1.1,0,2.2,0.1,3.3,0.3h-0.1l0.1,1.1
	C206.4,1074.1,204.2,1074.1,202,1074.6L202,1074.6z"/>
<path class="st10" d="M201.7,1074.7c0,0-11.3-4.9-18.9,1.6v-1.1c7.6-6.5,18.9-1.6,18.9-1.6V1074.7L201.7,1074.7L201.7,1074.7z"/>
<path class="st10" d="M217.4,1088.5c-4,0-7.5-2.9-8.2-6.9l-1.2-7.3l0.3-0.1c0.1-0.1,11.1-5.2,18.9,1.2l0.1,0.1v0.2v4.4
	c0,0.9-0.1,1.9-0.5,2.8l-0.4,1c-1.4,2.8-4.2,4.6-7.4,4.6L217.4,1088.5L217.4,1088.5z M208.9,1074.9l1.2,6.7c0.6,3.6,3.7,6.1,7.3,6.1
	h1.7c2.8,0,5.4-1.6,6.6-4.1l0.4-0.9c0.3-0.8,0.4-1.6,0.4-2.5v-4.2C219.8,1070.6,210.7,1074.1,208.9,1074.9L208.9,1074.9z"/>
<path class="st10" d="M208.4,1074.6c0,0,11.2-5,18.9,1.3v-1.1c-7.7-6.4-18.9-1.3-18.9-1.3L208.4,1074.6L208.4,1074.6L208.4,1074.6z"
	/>
<path class="st10" d="M191.1,1088.7c-3.1,0-6-1.7-7.4-4.5c-0.2-0.3-0.3-0.7-0.4-1c-0.3-0.9-0.5-1.8-0.5-2.8v-4.6l0.1-0.1
	c7.7-6.6,18.8-1.5,18.9-1.5l0.3,0.1l-1.2,7.3c-0.6,4-4.1,6.9-8.1,7L191.1,1088.7L191.1,1088.7z M183.7,1076.2v4.2
	c0,0.8,0.2,1.7,0.4,2.5c0.1,0.3,0.2,0.6,0.4,0.9c1.3,2.5,3.8,4,6.6,4h1.7c3.6,0,6.7-2.6,7.3-6.2l1.1-6.7
	C199.5,1074.2,190.3,1070.8,183.7,1076.2L183.7,1076.2z"/>
<g class="st23">
	<path class="st10" d="M226.4,1083.4c-1.3,2.7-4,4.4-7,4.4h-1.7c-3.8,0-7.1-2.7-7.8-6.5l-0.9-5.1l-0.3,0.1l1.2,7
		c0.7,3.8,4,6.5,7.8,6.5h1.7c3,0,5.7-1.7,7-4.4l0.4-0.9c0.3-0.8,0.4-1.7,0.4-2.6v-2c0,0.9-0.1,1.8-0.4,2.6L226.4,1083.4z"/>
	<path class="st10" d="M193.2,1088h-1.7c-3,0-5.7-1.6-7-4.3c-0.2-0.3-0.3-0.6-0.4-0.9c-0.3-0.8-0.5-1.7-0.5-2.6v2
		c0,0.9,0.2,1.8,0.5,2.6c0.1,0.3,0.2,0.6,0.4,0.9c1.3,2.6,4,4.3,7,4.3h1.7c3.8,0,7.1-2.8,7.7-6.6l1.1-7l-0.3-0.1l-0.8,5.1
		C200.2,1085.2,197,1088,193.2,1088z"/>
</g>
<ellipse transform="matrix(-6.108614e-03 -1 1 -6.108614e-03 -906.7725 1326.1079)" class="st24" cx="205.6" cy="1113.7" rx="3.5" ry="3.6"/>
<path class="st16" d="M205.4,1104.4c-1.7,0-3.3-0.5-4.8-1.4c-0.2-0.1-0.3-0.4-0.2-0.6c0.1-0.2,0.4-0.3,0.6-0.2c5.1,3,8.3,0,8.5-0.1
	c0.2-0.2,0.4-0.2,0.6,0s0.2,0.4,0,0.6l0,0C208.8,1103.8,207.1,1104.4,205.4,1104.4z"/>
<path class="st16" d="M205.9,1115.1c-0.2,0-0.4-0.2-0.4-0.4s0.2-0.4,0.4-0.4c0.1,0,0.2,0,0.2,0c-0.1-0.1-0.2-0.2-0.3-0.3
	c-0.5-0.3-1-0.3-1.5,0c-0.2,0.1-0.5,0-0.6-0.2c-0.1-0.2,0-0.5,0.2-0.6l0,0c0.8-0.5,1.8-0.4,2.6,0.2c0.4,0.3,0.5,0.7,0.4,1.2
	C206.8,1114.9,206.4,1115.1,205.9,1115.1L205.9,1115.1z"/>
<path class="st3" d="M190.5,1120.6l5.3,3.9l0.3,0.2l5.1,3.8v0.4v6.5l-7.6-4.8c-1.4-0.8-2.6-2-3.4-3.5
	C189.3,1125,189.4,1122.6,190.5,1120.6z"/>
<path class="st3" d="M220.4,1126.9c-0.8,1.4-2,2.6-3.4,3.5l-7.5,4.9v-5.7v-1.2l0,0l0,0l5-3.8l0.3-0.2c0,0,5.2-4,5.2-4
	C221.3,1122.4,221.4,1124.8,220.4,1126.9z"/>
<circle class="st4" cx="177.4" cy="1131.3" r="14.6"/>
<circle class="st3" cx="172.2" cy="1130.7" r="1.5"/>
<circle class="st3" cx="177.6" cy="1130.7" r="1.5"/>
<circle class="st3" cx="182.9" cy="1130.7" r="1.5"/>
<g class="st23">
	<path class="st10" d="M355.2,1008.2l-10.2-2.4c0.2-0.5,0.4-0.9,0.6-1.4l-14.4-3.3h-0.1c-0.1-0.6-0.2-1.3-0.2-2
		c0.1-0.4,1.1-2,9.2,0.3c9.2,2.7,15-1.2,15-1.2c-0.8-2-1.5-25.3-1.8-30.8c-0.4-7.2-2.2-14.3-7-22.8c-11.2-8.1-25.6-10.4-38.8-6.3
		c-5.9,4-11.9,10-16.1,22.1c2.7,0.7,5.4,0.9,8.1,0.6c0,9.2,0.8,20.7,4.3,24.4c2.9,3,7.1,5.1,10.8,6.5l-0.1,0l-0.1,0.2v0.1
		c-3.6-1.4-7.7-3.4-10.5-6.4c-3.6-3.8-4.3-15.2-4.3-23.9c-1.7,0.3-3.4,0.5-5.1,0.5c-1.7,12.1,2.4,13-1,20.8
		c-2.1,5.1-2.8,10.6-2.2,16c4.9,0.4,9.7,0,14.5-1c8-1.6,8.2,0,8.2,0.2h0.2c-0.1,1-0.1,2-0.3,2.9h-0.1l-14.4,3.3
		c0.2,0.5,0.4,1,0.6,1.5l-13.1,3l0,0c1.7,2.3,4.2,4.4,6.3,6.3C312.3,1030.2,340,1027,355.2,1008.2L355.2,1008.2z M314.3,992.3
		c0,0.2,0,0.7,0,1.2C314.3,992.8,314.3,992.3,314.3,992.3L314.3,992.3z M312.8,1004.4c0.1,0.3,0.2,0.7,0.3,1
		C313,1005.1,312.9,1004.8,312.8,1004.4L312.8,1004.4z M313.5,1006.3c0.3,0.5,0.6,0.9,1,1.3C314.2,1007.3,313.8,1006.8,313.5,1006.3
		L313.5,1006.3z M330.7,992.3L330.7,992.3c0,0,0,0.4,0,1.1C330.7,992.9,330.7,992.5,330.7,992.3L330.7,992.3z M330.4,1007.8
		c0.4-0.4,0.8-0.9,1.1-1.4C331.2,1006.9,330.8,1007.3,330.4,1007.8L330.4,1007.8z M331.9,1005.8c0.2-0.4,0.3-0.8,0.4-1.2
		c-0.1,0.4-0.2,0.7-0.4,1.1L331.9,1005.8z"/>
</g>
<circle class="st27" cx="320.8" cy="980.3" r="44.3"/>
<path class="st28" d="M321,991.9c0,0,12.3-2.2,18.5-8.7s4-37.3,4-37.3c-7-3.5-14.6-5.2-22.4-5.2h-0.5c-7.8-0.1-15.5,1.7-22.5,5.2
	c0,0-2.2,30.7,4,37.3c6.2,6.5,18.5,8.7,18.5,8.7L321,991.9z"/>
<path class="st29" d="M321,940.5h-0.5c-7.8-0.1-15.5,1.7-22.5,5.2c0,0-0.5,6.8-0.4,14.7c10-1.1,26.8-4.6,34.7-15.5
	c0.4,0.8,0.9,1.9,1.4,3c0.7,1.6,6,10.6,7.7,11.1c0.2,0-3.5-7.7-3.3-7.5c0.7,0.7,2.6,4.2,5.9,8.3c0.2-4.7,0-9.4-0.6-14
	C336.4,942.2,328.8,940.5,321,940.5z"/>
<path class="st10" d="M337.6,960.6l0.1,0.7c-4.1-3.2-11.3-1-11.3-1V959C326.4,959,332.7,956.7,337.6,960.6z"/>
<path class="st3" d="M332.9,944.4L332.9,944.4C332.8,944.4,332.8,944.4,332.9,944.4L332.9,944.4z"/>
<path class="st14" d="M319.9,1010c0.2-0.2,0.5-0.3,0.8-0.3c0.3,0,0.6,0.1,0.8,0.3c9.1,7.5,18.5,0.4,21.7-6.3l13.1,3l0.1,0.1
	c-14.5,19.7-42.2,23.9-61.9,9.4c-3.6-2.7-6.8-5.9-9.5-9.5l0,0l13.1-3C301.4,1010.4,310.8,1017.5,319.9,1010z"/>
<path class="st15" d="M320.9,1009.7c6.6,0.1,12-5.6,8.5-9.5l14.4,3.3c-0.2,0.5-0.4,1-0.6,1.4c-3.2,6.7-12.6,13.9-21.7,6.3
	c-0.2-0.2-0.5-0.3-0.8-0.3v-1.2L320.9,1009.7z"/>
<path class="st15" d="M320.7,1010.9c-0.3,0-0.6,0.1-0.8,0.3c-9.1,7.5-18.5,0.4-21.7-6.3c-0.2-0.5-0.4-1-0.6-1.5l14.4-3.3
	c-3.5,3.9,1.9,9.7,8.5,9.5h0.1L320.7,1010.9z"/>
<path class="st10" d="M306,964.9c0.1-1.8,1.6-3.2,3.4-3.1c1.7,0.1,3,1.4,3.1,3.1"/>
<path class="st10" d="M329.1,964.9c-0.1-1.8,1.3-3.3,3.1-3.4c1.8-0.1,3.3,1.3,3.4,3.1c0,0.1,0,0.2,0,0.4"/>
<path class="st10" d="M312.8,958.5L312.8,958.5c-3.1-0.6-6.4,0.2-8.9,2.1l-0.1,0.7c1.9-1.3,4.1-1.9,6.4-1.7c1.7,0,3.3,0.3,4.9,0.7
	V959C314.3,958.8,313.6,958.6,312.8,958.5z"/>
<path class="st28" d="M329.4,998.9L329.4,998.9c0.1,1.2,0.5,2.3,1,3.4C330.6,1001.1,330.2,999.8,329.4,998.9z"/>
<path class="st28" d="M312,998.9c-0.8,0.9-1.2,2.1-1,3.3c0.6-1,1-2.1,1.1-3.3L312,998.9z"/>
<path class="st28" d="M329.3,999c-0.1-0.7-0.2-1.4-0.2-2.2l0,0c-0.3-3.3-0.2-6.9-0.2-6.9l-0.1-0.2c-2.6,1-5.2,1.7-7.9,2.2h-0.5
	c-2.7-0.5-5.3-1.3-7.9-2.2l-0.1,0.2c0,0,0.1,2.9-0.1,5.9c0,1.1-0.1,2.2-0.3,3.1c-0.2,1.2-0.5,2.3-1.1,3.3c0.5,3.2,4.7,6.3,9.6,6.2
	h0.3c4.8,0.1,9-3,9.5-6.2C329.8,1001.3,329.5,1000.1,329.3,999z"/>
<path class="st29" d="M328.8,990c-2.6,1-5.2,1.7-7.9,2.2h-0.5c-2.7-0.5-5.3-1.3-7.9-2.2l-0.1,0.2l5.9,2.9c0.7,0.3,1.4,0.5,2.1,0.6
	l0,0c1.4,0.2,2.8-0.2,4-0.9l4.4-2.6L328.8,990z"/>
<path class="st16" d="M321,974.1c-1.1,0-2.2-0.3-3.2-0.8c-0.6-0.3-0.8-1-0.5-1.5l0.8-1.8c0.1-0.2,0.4-0.3,0.6-0.2
	c0.2,0.1,0.3,0.4,0.2,0.6l0,0l-0.8,1.8c-0.1,0.2,0,0.3,0.1,0.4c1.9,1,4.3,0.9,6.1-0.2c0.1,0,0.1-0.1,0.2-0.2c0-0.1,0-0.2,0-0.3
	l-0.9-1.5c-0.1-0.2-0.1-0.5,0.1-0.6c0.2-0.1,0.5-0.1,0.6,0.1l0.9,1.5c0.2,0.3,0.2,0.6,0.1,0.9c-0.1,0.3-0.3,0.6-0.6,0.8
	C323.5,973.7,322.3,974.1,321,974.1z"/>
<path class="st10" d="M351.8,965c0.2,11.2,0.6,29.1,1.4,31.1c0,0-5.8,3.9-15,1.2c-8.7-2.5-9.2-0.5-9.2-0.2c-0.3-3.3-0.2-6.9-0.2-6.9
	l-0.1-0.2c3.6-1.4,7.8-3.4,10.6-6.5c3.3-3.5,4.2-12.8,4.3-21.1C346.1,964.6,348.3,966.1,351.8,965z"/>
<path class="st10" d="M312.6,990l-0.1,0.2c0,0,0.1,2.9-0.1,5.9h-0.3c0-0.2-0.2-1.8-8.2-0.2c-4.8,1-9.6,1.4-14.5,1
	c0,0,1.5-24.7,3.1-36.7c1.7,0,3.4-0.2,5.1-0.5c0,8.8,0.7,20.1,4.3,23.9C304.8,986.5,309,988.6,312.6,990z"/>
<path class="st10" d="M332.1,942.1c0,0,0.9,1.9,1.9,4.2c0.7,1.6,9,21.2,18.1,17.8c0,0-5.6-24.7-13.8-28.3S332.1,942.1,332.1,942.1z"
	/>
<path class="st10" d="M336.2,935.8L336.2,935.8c0,0-31.6-18.7-46.2,23.5C290,959.3,330,959.3,336.2,935.8"/>
<circle class="st3" cx="320.7" cy="1015.2" r="1.8"/>
<circle class="st3" cx="320.7" cy="1020.6" r="1.8"/>
<path class="st3" d="M320.9,1008.5c6.6,0.1,12-5.6,8.5-9.5l14.4,3.3c-0.2,0.5-0.4,1-0.6,1.4c-3.2,6.7-12.6,13.9-21.7,6.3
	c-0.2-0.2-0.5-0.3-0.8-0.3v-1.2L320.9,1008.5z"/>
<path class="st3" d="M320.7,1009.7c-0.3,0-0.6,0.1-0.8,0.3c-9.1,7.5-18.5,0.4-21.7-6.3c-0.2-0.5-0.4-1-0.6-1.5l14.4-3.3
	c-3.5,3.9,1.9,9.7,8.5,9.5h0.1L320.7,1009.7z"/>
<ellipse class="st30" cx="320.7" cy="983.4" rx="3.7" ry="1.3"/>
<path class="st31" d="M313.7,981.5c1.2,1.4,4,2.3,7.2,2.3s6-0.9,7.2-2.3H313.7z"/>
<circle class="st30" cx="315.4" cy="966.5" r="0.8"/>
<circle class="st30" cx="314.7" cy="969.6" r="0.8"/>
<circle class="st30" cx="313.1" cy="967.4" r="0.8"/>
<circle class="st30" cx="326.6" cy="966.5" r="0.8"/>
<circle class="st30" cx="327.3" cy="969.6" r="0.8"/>
<circle class="st30" cx="328.9" cy="967.4" r="0.8"/>
<circle class="st31" cx="282.1" cy="857.2" r="44.7"/>
<g class="st23">
	<path class="st10" d="M306.3,824.2L306.3,824.2c0,0.1,0,0.1,0,0.2C306.3,824.2,306.3,824.2,306.3,824.2z"/>
	<path class="st10" d="M294.5,814.5h-0.2C294.4,814.6,294.4,814.6,294.5,814.5L294.5,814.5z"/>
	<path class="st32" d="M261.3,853.9l0.2-0.1c-1.2-4.7-2-9.4-2.1-14.3h-0.1c-1.2-0.3-3,1.2-2.7,3.8
		C257,846.4,258.7,853.3,261.3,853.9z"/>
</g>
<path class="st32" d="M318.7,882.4c-6.9-2.2-14-3.6-21.2-4.2l0,0c-1.4-1.1-3.1-1.9-4.8-2.4l0,0c-0.2-2-0.2-4.2-0.2-5.6l0,0
	c6.5-3,10.1-9.5,12.1-16.7c1-3.9,1.7-7.8,2-11.8c0.3-0.5,0.5-1.1,0.7-1.6c0.3,4.9-2,13.6-2,13.6c2.6-0.6,4.4-7.6,4.7-10.6
	c0.3-2.4-1.2-3.8-2.3-3.8l0,0l0.1-0.3c0.8-5.4-1.9-17.1-2.4-18.7c-0.5-1.5-5.2-3.5-3.3-3c0.7,0.2,1.4,0.6,2,1c0-0.1-0.1-0.3-0.1-0.4
	c-2.2-1.2-4.4-2.3-6.8-3.1c-0.1,0-0.3,0.1-0.5,0.1c-0.2,0-0.3-0.1-0.3-0.3c-0.5-0.2-1-0.3-1.5-0.5c-0.1,0.1-0.2,0.2-0.3,0.2
	s-0.2-0.2-0.2-0.4l-0.9-0.2c-0.1,0.1-0.1,0.2-0.3,0.3c-0.1,0.1-0.4-0.2-0.8-0.6c-2.3-0.5-4.5-0.9-6.9-1.1c-0.2,0.5,1.1,0.7,0.9,1.4
	c-0.2,0.6-3.8,1-7.4-0.7c-2.1-1-6.7,1-11.4,1.6c-4.6,1.5-8.9,3.8-12.8,6.7c0,2,1.4,3.8,3.4,4.3c5.5,1.9-1.6,5.9-0.1,6.6
	c0.6,0.2,1.3,0.4,1.9,0.3c0,2,0,4.3,0.1,6.8c0.2,4.8,0.9,9.6,2.1,14.3c2.1,7.7,6.2,14.6,13.6,17.3c0,1.4-0.1,3.2-0.2,5h0
	c-1.7,0.5-3.2,1.3-4.6,2.3l0-0.1c-9.5,0.9-18.1,2.9-23.9,5.3l-0.1,0.1c14.2,19.6,41.5,23.9,61.1,9.8
	C312.3,890.3,315.9,886.6,318.7,882.4L318.7,882.4z"/>
<path class="st3" d="M304.9,823.7c0-0.1,0-0.1,0-0.2l0,0C304.9,823.4,304.9,823.5,304.9,823.7z"/>
<path class="st33" d="M300.1,838.5h-15.2v-0.3c0-1.7-0.4-3.2,2.2-3.3C289.7,834.8,297.4,833.2,300.1,838.5z"/>
<path class="st34" d="M298,881.3c-0.1-1.4-0.8-2.6-1.9-3.4l0,0c9,0.8,17,2.5,22.7,4.7c-14,20.3-41.9,25.5-62.2,11.4
	c-4.3-3-8-6.6-11.1-10.9l0.2-0.1c5.8-2.4,14.4-4.4,23.9-5.3l0,0.1c-1.2,0.8-1.9,2.1-2,3.5c0,3.9,6.8,7,15.2,7S298,885.1,298,881.3z"
	/>
<path class="st31" d="M295.1,814.4L295.1,814.4C295.2,814.4,295.1,814.4,295.1,814.4z"/>
<path class="st35" d="M293.6,823.7c-0.5,0.8-0.8,2.4,1.9,2.5c2.7,0.1-1.4,0.9-0.6,3.4s9.5,3.6,9.4,9.7c-0.1,3.1,0.4,2.6,0.9,1.4
	c-0.3,4.2-0.9,8.3-2,12.4c-2,7.2-5.6,13.6-12.1,16.7c-2.7,1.3-5.7,1.9-8.7,1.8h-0.6c-2.4,0-4.9-0.4-7.2-1.2
	c-7.4-2.7-11.5-9.6-13.6-17.3c-1.2-4.7-2-9.4-2.1-14.3c-0.1-2.4-0.1-4.7-0.1-6.8c2.6,0.1,7.5-0.8,13.8-3.9c8.6-4.1,13.9,3.4,20.9-5
	c0.4-0.5,0.9-1,1.4-1.5C294.5,822.5,294.1,823.1,293.6,823.7z"/>
<path class="st31" d="M293.1,813.8L293.1,813.8c-0.1,0-0.2,0-0.2,0L293.1,813.8z"/>
<path class="st31" d="M291.7,813.5c-0.1,0-0.1,0-0.2,0H291.7z"/>
<g class="st36">
	<path class="st37" d="M278.3,868.2l7.4-0.3C285.6,867.9,281.7,870.1,278.3,868.2z"/>
</g>
<g class="st23">
	<path class="st10" d="M279,863l7.4-0.5C286.4,862.5,282.4,866.5,279,863z"/>
</g>
<path class="st35" d="M291.5,876.7c2.6,0.9,4.3,2.1,4.3,3.5c0,2.6-5.8,4.7-13,4.7s-13-2.1-13-4.7c0-1.4,1.7-2.6,4.4-3.5
	c0-0.4,0.1-0.8,0.1-1.2c0.1-1.8,0.2-3.7,0.2-5.1c2.3,0.8,4.7,1.2,7.2,1.2h0.6c3,0,6-0.6,8.7-1.8c0,1.4,0,3.6,0.2,5.7
	c0,0.4,0.1,0.9,0.1,1.3L291.5,876.7z"/>
<path class="st35" d="M258,838.9c0.2,4.8,0.9,9.6,2.1,14.3l-0.2,0.1c-2.6-0.6-4.4-7.5-4.7-10.5c-0.3-2.6,1.5-4.1,2.7-3.8L258,838.9z
	"/>
<path class="st35" d="M306.2,838.9c1.2,0,2.6,1.5,2.3,3.8c-0.4,3-2.1,10-4.7,10.5c0,0,2.5-9.5,2-14.2L306.2,838.9z"/>
<path class="st38" d="M285,814.4c-0.2,0.8-3.8,1-7.4-0.7c-3.6-1.7-14,5.1-20.6-0.6c0,0-0.6,9.9,6.9,12.6c5.5,1.9-4.7,2.4-5.1,7.3
	c1.5,0.8,5.3,0.5,13.8-3.7c8.4-4,14.9,3.4,21.9-5.8l2.8-3.6L285,814.4z"/>
<path class="st39" d="M291.1,869.8c-2.7,1.3-5.7,1.9-8.7,1.8h-0.6c-2.4,0-4.9-0.4-7.2-1.2l0,0c0,0.2,0.6,0.5,0.8,0.6
	c0.4,0.2,0.8,0.4,1.2,0.6c0.8,0.4,1.6,0.6,2.5,0.8C283,873.4,288.2,873,291.1,869.8L291.1,869.8z"/>
<path class="st27" d="M256.9,825.2c5.5,1.9-1.6,5.9-0.1,6.6s7.2,0.5,15.8-3.6s13.9,3.4,20.9-5c2.7-3.2,0.7-0.3,0.2,0.4
	s-0.8,2.4,1.9,2.5c2.7,0.1-1.4,0.9-0.6,3.4c0.8,2.5,9.5,3.6,9.4,9.7s2-0.8,2-0.8c0.8-5.4-1.9-17.1-2.4-18.6c-0.5-1.5-5.2-3.5-3.3-3
	c0.7,0.2,1.4,0.6,2,1c-0.3-1.3-1-2.4-1.8-3.4c-1.2-1.7-4.3-0.1-5.5,0c-1.2,0.1,0.9-6.5-0.2-5.4c-0.2,0.2-1.2,4.8-2,4.8
	s1.3-2.9-0.3-4c0,0-0.3,3.4-1,3.6s-5.3-6.2-6.9-4.8c0,0,2.8,2,2.2,2.8s-2.7,0.1-2.7,0.1c-1.1,0.8,0.9,0.9,0.6,1.7s-3.8,1-7.4-0.7
	c-3.6-1.7-14,5.1-20.6-0.6C256.9,812.1,249.4,822.5,256.9,825.2z"/>
<path class="st3" d="M287.9,860.4c0.1,4.2-11.7,4.2-11.8,0H287.9z"/>
<path class="st37" d="M279.2,842.7l-1.2,9c-0.2,1.5,0.9,2.9,2.4,3.1c0.1,0,0.2,0,0.4,0h2.4c1.5,0,2.8-1.2,2.8-2.8c0-0.1,0-0.3,0-0.4
	l-1.3-9c-0.2-1.4-1.4-2.4-2.8-2.4l0,0C280.5,840.3,279.3,841.3,279.2,842.7z"/>
<ellipse class="st40" cx="269.3" cy="850.5" rx="7.6" ry="5.2"/>
<ellipse class="st40" cx="294.6" cy="850.5" rx="7.6" ry="5.2"/>
<path class="st27" d="M275.2,834.3c-0.8,0-1.5,0-2.3,0c-0.9,0-1.8,0.1-2.7,0.2c-1,0.1-1.9,0.4-2.8,0.7c-0.9,0.3-1.7,0.8-2.5,1.5
	c-0.9,0.8-1.5,1.7-1.9,2.8c-0.1,0.3-0.2,0.6-0.3,0.9c0,0-0.1,0.3,0,0.4c0.1,0,1-1.3,2-2.1c3.2-2.5,7.5-2.3,10.4-2.1
	c0.6,0,1.2-0.4,1.2-1.1S275.8,834.4,275.2,834.3L275.2,834.3L275.2,834.3z"/>
<path class="st27" d="M288.8,834.3c0.8,0,1.5,0,2.3,0c0.9,0,1.8,0.1,2.7,0.2c1,0.1,1.9,0.4,2.8,0.7c0.9,0.3,1.7,0.8,2.5,1.5
	c0.9,0.8,1.5,1.7,1.9,2.8c0.1,0.3,0.2,0.6,0.3,0.9c0,0,0.1,0.4,0,0.4c-0.1,0-1-1.3-2-2.1c-3.2-2.5-7.5-2.3-10.4-2.1
	c-0.6,0-1.2-0.4-1.2-1.1C287.6,834.9,288.1,834.4,288.8,834.3L288.8,834.3z"/>
<path class="st10" d="M274.8,842.3c-0.1,0-0.3-0.1-0.4-0.2c-1.4-2-4.2-2.4-6.1-1c-0.3,0.2-0.6,0.5-0.9,0.8c-0.2,0.2-0.5,0.3-0.8,0.1
	c-0.2-0.2-0.3-0.5-0.1-0.8l0,0c1.1-1.2,2.5-1.9,4.1-2c1.7,0,3.4,0.8,4.5,2.1c0.2,0.2,0.2,0.6,0,0.8
	C275,842.2,274.9,842.3,274.8,842.3L274.8,842.3z"/>
<path class="st10" d="M289.2,842.3c-0.3,0-0.5-0.2-0.5-0.5c0-0.1,0.1-0.3,0.2-0.4c1.1-1.3,2.7-2.1,4.5-2.1c1.6,0.1,3,0.8,4.1,2
	c0.2,0.2,0.2,0.6-0.1,0.8s-0.6,0.2-0.8-0.1c-0.9-0.9-2.1-1.5-3.3-1.6c-1.4,0.1-2.7,0.7-3.6,1.8C289.4,842.2,289.3,842.3,289.2,842.3
	z"/>
<path class="st41" d="M291.5,876.7l0.2,0.1L291.5,876.7z"/>
<path class="st39" d="M291.7,876.8l-0.2-0.1h-0.1l0,0h-0.1l0,0c0,0.4,0.1,0.9,0.1,1.3h0.1c2.2,0.7,3.8,1.8,4.2,2.9
	c0.1-0.2,0.1-0.4,0.1-0.6C295.8,878.9,294.2,877.7,291.7,876.8z"/>
<path class="st39" d="M269.9,880.2c0,0.2,0,0.4,0.1,0.6c0.4-1.2,2-2.2,4.2-2.9c0-0.4,0.1-0.8,0.1-1.2h0h-0.1l0,0
	C271.6,877.6,269.9,878.8,269.9,880.2z"/>
<path class="st42" d="M282.9,888.3c-8,0-14.5-2.8-15.1-6.4c0,0.2-0.1,0.4-0.1,0.6c0,3.9,6.8,7,15.2,7s15.2-3.1,15.2-7
	c0-0.2,0-0.4-0.1-0.6C297.3,885.5,290.8,888.3,282.9,888.3z"/>
<path class="st20" d="M269.7,879c1.4-1,2.9-1.8,4.5-2.3c0-0.4,0.1-0.8,0.1-1.2h0c-1.7,0.5-3.2,1.3-4.6,2.3c-1.2,0.8-1.9,2.1-2,3.5
	c0,0.2,0,0.4,0.1,0.6C268.1,880.7,268.8,879.7,269.7,879z"/>
<path class="st20" d="M291.5,876.7l0.2,0.1c1.6,0.5,3.1,1.3,4.5,2.3c0.9,0.7,1.6,1.7,1.9,2.8c0-0.2,0.1-0.4,0.1-0.6
	c-0.1-1.4-0.8-2.6-1.9-3.4c-1.4-1.1-3.1-1.9-4.8-2.4l0,0C291.4,875.9,291.5,876.3,291.5,876.7L291.5,876.7L291.5,876.7z"/>
<path class="st20" d="M282.9,886.2c7.1,0,13-2.1,13-4.7c0-0.2,0-0.4-0.1-0.6c-0.8,2.3-6.2,4.1-12.8,4.1s-12-1.8-12.8-4.1
	c-0.1,0.2-0.1,0.4-0.1,0.6C269.9,884,275.7,886.2,282.9,886.2z"/>
<path class="st20" d="M291.5,876.7L291.5,876.7L291.5,876.7L291.5,876.7z"/>
<path class="st20" d="M282.9,888.3c7.9,0,14.5-2.8,15.1-6.4c-0.3-1.1-0.9-2.1-1.8-2.8c-1.3-1-2.8-1.8-4.5-2.3
	c2.5,0.9,4.1,2.1,4.1,3.4c0,0.2,0,0.4-0.1,0.6c0.1,0.2,0.1,0.4,0.1,0.6c0,2.6-5.8,4.7-13,4.7s-13-2.1-13-4.7c0-0.2,0-0.4,0.1-0.6
	c-0.1-0.2-0.1-0.4-0.1-0.6c0-1.4,1.7-2.6,4.4-3.5l0,0c-1.6,0.5-3.1,1.3-4.5,2.3c-1,0.7-1.7,1.7-2,2.9
	C268.4,885.5,274.9,888.3,282.9,888.3z"/>
<ellipse class="st4" cx="24.6" cy="906.2" rx="12.7" ry="12.7"/>
<path class="st43" d="M37.4,906.1c0-6.6-5-12.1-11.6-12.6L36,911.8C36.9,910,37.4,908.1,37.4,906.1z"/>
</svg>
